<svg width="45" height="45" viewBox="0 0 45 45" fill="none" xmlns="http://www.w3.org/2000/svg">
<path fill-rule="evenodd" clip-rule="evenodd" d="M18 9.00002C15.6131 9.00002 13.3239 9.94823 11.636 11.6361C9.94821 13.3239 9 15.6131 9 18C9 20.387 9.94821 22.6762 11.636 24.364C13.3239 26.0518 15.6131 27 18 27C20.3869 27 22.6761 26.0518 24.364 24.364C26.0518 22.6762 27 20.387 27 18C27 15.6131 26.0518 13.3239 24.364 11.6361C22.6761 9.94823 20.3869 9.00002 18 9.00002ZM4.5 18C4.49973 15.8753 5.00095 13.7806 5.96289 11.8862C6.92483 9.99175 8.32033 8.35111 10.0359 7.0977C11.7515 5.84428 13.7386 5.01349 15.8358 4.67289C17.933 4.33229 20.081 4.49149 22.105 5.13755C24.1291 5.78362 25.9721 6.89829 27.4841 8.39093C28.9962 9.88357 30.1345 11.712 30.8067 13.7276C31.4788 15.7431 31.6657 17.8888 31.3522 19.9903C31.0387 22.0917 30.2337 24.0894 29.0025 25.821L39.8408 36.6593C40.2506 37.0836 40.4774 37.652 40.4723 38.2419C40.4671 38.8319 40.2305 39.3962 39.8133 39.8134C39.3962 40.2305 38.8318 40.4672 38.2419 40.4723C37.652 40.4774 37.0836 40.2506 36.6592 39.8408L25.8233 29.0048C23.8036 30.4409 21.4275 31.2934 18.9555 31.4688C16.4835 31.6442 14.0109 31.1358 11.8087 29.9992C9.60644 28.8626 7.75954 27.1418 6.47038 25.0253C5.18121 22.9088 4.49952 20.4782 4.5 18V18Z" fill="black"/>
</svg>
