<svg width="42" height="53" viewBox="0 0 42 53" fill="none" xmlns="http://www.w3.org/2000/svg">
<path d="M37.3333 5.3H27.58C26.6 2.226 24.0333 0 21 0C17.9667 0 15.4 2.226 14.42 5.3H4.66667C2.1 5.3 0 7.685 0 10.6V47.7C0 50.615 2.1 53 4.66667 53H37.3333C39.9 53 42 50.615 42 47.7V10.6C42 7.685 39.9 5.3 37.3333 5.3ZM21 5.3C22.2833 5.3 23.3333 6.4925 23.3333 7.95C23.3333 9.4075 22.2833 10.6 21 10.6C19.7167 10.6 18.6667 9.4075 18.6667 7.95C18.6667 6.4925 19.7167 5.3 21 5.3ZM25.6667 42.4H9.33333V37.1H25.6667V42.4ZM32.6667 31.8H9.33333V26.5H32.6667V31.8ZM32.6667 21.2H9.33333V15.9H32.6667V21.2Z" fill="black"/>
</svg>
